<?xml version="1.0" encoding="utf-8"?>
<!-- Generator: Adobe Illustrator 23.0.3, SVG Export Plug-In . SVG Version: 6.00 Build 0)  -->
<svg version="1.1" id="Layer_1" xmlns="http://www.w3.org/2000/svg" xmlns:xlink="http://www.w3.org/1999/xlink" x="0px" y="0px"
	 viewBox="0 0 80 80" style="enable-background:new 0 0 80 80;" xml:space="preserve">
<style type="text/css">
	.st0{fill:#ffffff;}
	.st1{fill:none;stroke:#ffffff;stroke-width:6;stroke-linecap:round;stroke-miterlimit:10;stroke-dasharray:200;stroke-dashoffset:199.9;}
</style>
<path class="st0" d="M75.91,37.55v12l-6,20h-2c0,1.66-1.34,3-3,3c-1.65,0-3-1.34-3-3h-2l-6-20v-12H75.91z">
	<animateMotion dur="10s" repeatCount="indefinite" path="M0,0h-47c-1.66,0-3-1.34-3-3v0c0-1.66,1.34-3,3-3h44c1.66,0,3-1.34,3-3v0c0-1.66-1.34-3-3-3h-44c-1.66,0-3-1.34-3-3v0c0-1.66,1.34-3,3-3h44c1.66,0,3-1.34,3-3v0c0-1.66-1.34-3-3-3h-44c-1.66,0-3-1.34-3-3v0c0-1.66,1.34-3,3-3H0"/></path>
<path class="st1" d="M64.91,69.55h-47c-1.66,0-3-1.34-3-3v0c0-1.66,1.34-3,3-3h44c1.66,0,3-1.34,3-3v0c0-1.66-1.34-3-3-3h-44
	c-1.66,0-3-1.34-3-3v0c0-1.66,1.34-3,3-3h44c1.66,0,3-1.34,3-3v0c0-1.66-1.34-3-3-3h-44c-1.66,0-3-1.34-3-3v0c0-1.66,1.34-3,3-3h47" pathLength="100"
	>
	<animate attributeName="stroke-dashoffset" from="199.9" to="100" dur="10s" repeatCount="indefinite"></animate>
	</path>
</svg>
 